<svg width="51" height="51" viewBox="0 0 51 51" fill="none" xmlns="http://www.w3.org/2000/svg">
<ellipse cx="25.7721" cy="25.0385" rx="25.2281" ry="25.0385" fill="#7B70F5"/>
<path d="M25.772 44.423C36.542 44.423 45.2921 35.7549 45.2921 25.0384C45.2921 14.3219 36.542 5.65381 25.772 5.65381C15.0021 5.65381 6.25195 14.3219 6.25195 25.0384C6.25195 35.7549 15.0021 44.423 25.772 44.423Z" fill="white" stroke="white" stroke-width="3"/>
<ellipse cx="25.7718" cy="25.0385" rx="16.4183" ry="16.2949" fill="#33356F"/>
<rect x="15.4512" y="15.9336" width="6.98961" height="3.41434" rx="1" fill="white"/>
<path d="M24.2432 18.1582L21.9497 19.099L21.9497 17.2173L24.2432 18.1582Z" fill="white"/>
<rect x="36.0928" y="19.3479" width="7.29348" height="3.41434" rx="1" transform="rotate(-180 36.0928 19.3479)" fill="white"/>
<path d="M26.9189 17.1233L29.3121 16.1825L29.3121 18.0642L26.9189 17.1233Z" fill="white"/>
<path d="M22.1508 24.698L22.1148 27.524H22.8348C23.3268 27.512 23.7648 27.506 24.1488 27.506C24.5328 27.506 24.9588 27.512 25.4268 27.524H25.5168C25.6608 27.524 25.7988 27.53 25.9308 27.542C26.0748 27.542 26.2128 27.542 26.3448 27.542C26.4888 27.554 26.6268 27.578 26.7588 27.614C26.8908 27.638 27.0228 27.668 27.1548 27.704C27.3588 27.776 27.5268 27.884 27.6588 28.028C27.7788 28.184 27.8388 28.358 27.8388 28.55C27.8388 28.61 27.8388 28.682 27.8388 28.766C27.8388 28.838 27.8268 28.904 27.8028 28.964C27.7788 29.096 27.7008 29.216 27.5688 29.324C27.5088 29.408 27.3948 29.468 27.2268 29.504C27.0708 29.552 26.9148 29.582 26.7588 29.594C26.5908 29.63 26.4228 29.648 26.2548 29.648H25.4088L22.0788 29.666L22.0428 33.194L25.6248 33.23H26.4708C26.5668 33.23 26.6568 33.23 26.7408 33.23C26.8248 33.23 26.9028 33.236 26.9748 33.248C27.0708 33.272 27.1548 33.29 27.2268 33.302C27.3108 33.302 27.3888 33.314 27.4608 33.338C27.6048 33.386 27.7248 33.452 27.8208 33.536C27.9408 33.656 28.0188 33.782 28.0548 33.914C28.0668 33.974 28.0728 34.04 28.0728 34.112C28.0848 34.172 28.0848 34.238 28.0728 34.31C28.0728 34.502 28.0128 34.676 27.8928 34.832C27.7488 35 27.5808 35.108 27.3888 35.156C27.1368 35.264 26.8608 35.318 26.5608 35.318C26.4288 35.33 26.2908 35.336 26.1468 35.336C26.0028 35.336 25.8648 35.342 25.7328 35.354H25.6248C24.6888 35.378 23.7168 35.378 22.7088 35.354C22.4688 35.354 22.2768 35.348 22.1328 35.336C21.9888 35.336 21.8568 35.336 21.7368 35.336C21.6288 35.336 21.5148 35.336 21.3948 35.336C21.2748 35.336 21.1188 35.336 20.9268 35.336C20.6508 35.36 20.4228 35.312 20.2428 35.192C20.1108 35.108 20.0088 34.994 19.9368 34.85C19.9008 34.814 19.8828 34.778 19.8828 34.742C19.8708 34.718 19.8588 34.7 19.8468 34.688C19.8348 34.676 19.8228 34.658 19.8108 34.634C19.7868 34.574 19.7688 34.514 19.7568 34.454C19.7448 34.382 19.7388 34.316 19.7388 34.256C19.7268 34.196 19.7148 34.136 19.7028 34.076C19.7028 34.016 19.6968 33.956 19.6848 33.896V33.608C19.6848 33.56 19.6848 33.512 19.6848 33.464C19.6968 33.416 19.7028 33.368 19.7028 33.32V31.916L19.7388 29.324V26.93C19.7388 26.498 19.7388 26.114 19.7388 25.778C19.7508 25.442 19.7628 25.076 19.7748 24.68V24.59C19.7868 24.458 19.7928 24.338 19.7928 24.23C19.8048 24.11 19.8108 23.99 19.8108 23.87C19.8228 23.63 19.8888 23.396 20.0088 23.168C20.0568 23.072 20.1048 22.988 20.1528 22.916C20.2128 22.844 20.2908 22.784 20.3868 22.736C20.5668 22.628 20.7528 22.574 20.9448 22.574C21.0408 22.574 21.1128 22.58 21.1608 22.592V22.574C21.3768 22.574 21.5508 22.574 21.6828 22.574C21.8148 22.574 21.9408 22.574 22.0608 22.574C22.1928 22.574 22.3308 22.574 22.4748 22.574C22.6188 22.562 22.8168 22.556 23.0688 22.556C23.5488 22.544 24.0048 22.538 24.4368 22.538C24.8688 22.538 25.3128 22.544 25.7688 22.556H25.8408C25.9728 22.568 26.1108 22.574 26.2548 22.574C26.3988 22.574 26.5368 22.58 26.6688 22.592C26.8008 22.592 26.9328 22.61 27.0648 22.646C27.1968 22.67 27.3288 22.706 27.4608 22.754C27.6648 22.814 27.8328 22.916 27.9648 23.06C28.0728 23.228 28.1268 23.396 28.1268 23.564C28.1268 23.636 28.1268 23.708 28.1268 23.78C28.1268 23.84 28.1148 23.9 28.0908 23.96C28.0788 24.08 28.0068 24.206 27.8748 24.338C27.8268 24.362 27.7728 24.392 27.7128 24.428C27.6648 24.464 27.6048 24.494 27.5328 24.518C27.4608 24.542 27.3828 24.56 27.2988 24.572C27.2268 24.572 27.1548 24.578 27.0828 24.59C26.9868 24.614 26.8968 24.626 26.8128 24.626C26.7408 24.626 26.6568 24.626 26.5608 24.626H25.7508L22.1508 24.644V24.698Z" fill="white"/>
<path d="M34.4265 27.0703C34.5585 27.2263 34.6245 27.3883 34.6245 27.5563C34.6245 27.6283 34.6185 27.7063 34.6065 27.7903C34.6065 27.8623 34.6005 27.9283 34.5885 27.9883C34.5525 28.1203 34.4745 28.2463 34.3545 28.3663C34.2585 28.4383 34.1265 28.4923 33.9585 28.5283C33.8745 28.5523 33.7905 28.5703 33.7065 28.5823C33.6225 28.5943 33.5325 28.6123 33.4365 28.6363C33.3525 28.6483 33.2685 28.6543 33.1845 28.6543C33.1005 28.6543 33.0105 28.6543 32.9145 28.6543H31.9965C31.7805 28.6663 31.5645 28.6723 31.3485 28.6723C31.1445 28.6723 30.9405 28.6723 30.7365 28.6723C30.7485 29.0443 30.7545 29.4463 30.7545 29.8783C30.7545 30.2983 30.7485 30.7903 30.7365 31.3543C30.7365 31.9183 30.7305 32.5723 30.7185 33.3163C30.7185 34.0603 30.7185 34.9243 30.7185 35.9083V37.2763C30.7185 37.3963 30.7245 37.4863 30.7365 37.5463C30.7365 37.5943 30.7365 37.6423 30.7365 37.6903C30.7365 37.7263 30.7305 37.7743 30.7185 37.8343C30.6945 37.9423 30.6765 38.0683 30.6645 38.2123C30.6645 38.2723 30.6585 38.3323 30.6465 38.3923C30.6345 38.4403 30.6165 38.4943 30.5925 38.5543C30.5445 38.6023 30.5205 38.6383 30.5205 38.6623L30.4665 38.7703C30.4065 38.8903 30.2925 39.0043 30.1245 39.1123C29.8605 39.2443 29.5665 39.2743 29.2425 39.2023C29.0385 39.1783 28.8825 39.1243 28.7745 39.0403C28.6665 38.9323 28.5885 38.8243 28.5405 38.7163C28.4685 38.5843 28.4265 38.4583 28.4145 38.3383C28.3785 38.2303 28.3605 38.1163 28.3605 37.9963V28.7443C28.2885 28.7443 28.1385 28.7443 27.9105 28.7443C27.6825 28.7443 27.4365 28.7443 27.1725 28.7443C26.9205 28.7323 26.6805 28.7203 26.4525 28.7083C26.2245 28.6963 26.0685 28.6843 25.9845 28.6723C25.9125 28.6603 25.7985 28.6423 25.6425 28.6183C25.4985 28.5943 25.3785 28.5703 25.2825 28.5463C25.0305 28.4743 24.8325 28.3603 24.6885 28.2043C24.5565 28.0483 24.4905 27.8743 24.4905 27.6823C24.4905 27.6103 24.4905 27.5383 24.4905 27.4663C24.4905 27.3943 24.5025 27.3283 24.5265 27.2683C24.5625 27.1243 24.6585 27.0043 24.8145 26.9083C24.8625 26.8723 24.9345 26.8303 25.0305 26.7823C25.1385 26.7223 25.2405 26.6803 25.3365 26.6563C25.4805 26.6083 25.6605 26.5723 25.8765 26.5483C25.9725 26.5363 26.0685 26.5303 26.1645 26.5303C26.2605 26.5303 26.3625 26.5303 26.4705 26.5303C26.8905 26.5303 27.2865 26.5303 27.6585 26.5303C28.0425 26.5303 28.4445 26.5243 28.8645 26.5123C29.5605 26.5003 30.2505 26.5003 30.9345 26.5123C31.6305 26.5123 32.3205 26.5243 33.0045 26.5483C33.1605 26.5603 33.3105 26.5783 33.4545 26.6023C33.5985 26.6263 33.7425 26.6683 33.8865 26.7283C33.9945 26.7643 34.0965 26.8123 34.1925 26.8723C34.2885 26.9203 34.3665 26.9863 34.4265 27.0703Z" fill="white"/>
</svg>
